<?xml version="1.0" encoding="UTF-8" standalone="no"?>
<!DOCTYPE svg PUBLIC "-//W3C//DTD SVG 1.1//EN" "http://www.w3.org/Graphics/SVG/1.1/DTD/svg11.dtd">
<svg width="100%" height="100%" viewBox="0 0 478 140" version="1.1" xmlns="http://www.w3.org/2000/svg" xmlns:xlink="http://www.w3.org/1999/xlink" xml:space="preserve" xmlns:serif="http://www.serif.com/" style="fill-rule:evenodd;clip-rule:evenodd;stroke-linejoin:round;stroke-miterlimit:2;">
    <g transform="matrix(1,0,0,1,-181.8,-214.232)">
        <path d="M258,258.05L258,248.61L267.91,248.61C273.208,248.504 277.664,252.753 277.81,258.05L277.81,288.23C277.81,295.74 281.81,300.29 289.88,300.29C299.37,300.29 304.71,295.15 304.71,285.07L304.71,248.62L324.48,248.62L324.48,316.2L304.7,316.2L304.7,307.61C300.34,314.92 293.03,318.09 283.54,318.09C268.54,318.09 258.03,307.61 258.03,289.61L258,258.05Z" style="fill:rgb(29,29,27);fill-rule:nonzero;"/>
        <path d="M336.3,248.59L356.08,248.59L356.08,259.08C360.63,249.78 368.34,246.81 375.46,246.81C378.985,246.641 382.478,247.563 385.46,249.45L379.13,266.45C376.759,265.106 374.052,264.467 371.33,264.61C361.84,264.61 356.11,270.34 356.11,284.38L356.11,316.22L336.3,316.22L336.3,248.59Z" style="fill:rgb(29,29,27);fill-rule:nonzero;"/>
        <path d="M419.75,304.55L432.2,293.48C436.439,298.873 442.941,302.013 449.8,301.98C456.92,301.98 459.68,299.8 459.68,297.04C459.68,293.87 457.68,292.49 446.63,290.12C432.63,287.12 424.29,280.63 424.29,268.17C424.29,255.51 433.98,246.81 449.21,246.81C459.88,246.81 467.4,250.18 474.12,256.11L463.64,268.17C459.94,264.57 454.962,262.577 449.8,262.63C444.66,262.63 442.09,264.81 442.09,267.38C442.09,270.74 444.66,271.93 455.93,274.1C471.15,277.1 478.47,284.58 478.47,295.65C478.47,309.3 468.78,318 450.19,318C438.602,318.029 427.531,313.137 419.75,304.55Z" style="fill:rgb(29,29,27);fill-rule:nonzero;"/>
        <path d="M482.83,304.55L495.29,293.48C499.524,298.873 506.024,302.014 512.88,301.98C520,301.98 522.77,299.8 522.77,297.04C522.77,293.87 520.77,292.49 509.77,290.12C495.77,287.12 487.43,280.63 487.43,268.17C487.43,255.51 497.12,246.81 512.34,246.81C523.02,246.81 530.53,250.18 537.25,256.11L526.77,268.17C523.07,264.57 518.092,262.577 512.93,262.63C507.8,262.63 505.22,264.81 505.22,267.38C505.22,270.74 507.8,271.93 519.06,274.1C534.29,277.1 541.6,284.58 541.6,295.65C541.6,309.3 531.92,318 513.33,318C501.723,318.038 490.629,313.146 482.83,304.55Z" style="fill:rgb(29,29,27);fill-rule:nonzero;"/>
        <path d="M620,248.58L620,316.2L599.5,316.2L599.5,308.25C595.75,314.18 589.22,317.74 578.94,317.74C561.35,317.74 547.5,302.74 547.5,282.15C547.5,261.56 561.35,246.55 578.94,246.55C589.22,246.55 595.75,250.12 599.5,256.05C599.795,256.55 600.052,257.072 600.27,257.61C600.488,258.148 600.45,248.56 611.17,248.56L620,248.58ZM599.9,282.15C599.9,271.07 594.17,263.96 584.08,263.96C573.99,263.96 567.87,271.07 567.87,282.15C567.87,293.23 574,300.34 584.08,300.34C594.16,300.34 599.9,293.22 599.9,282.15Z" style="fill:rgb(29,29,27);fill-rule:nonzero;"/>
        <path d="M394.74,235.59C398.47,228.279 403.132,221.482 408.61,215.37C408.49,215.29 408.38,215.2 408.25,215.13C403.84,212.66 397.56,215.46 394.25,221.41C391.28,226.64 391.61,232.56 394.74,235.59Z" style="fill:rgb(227,6,19);fill-rule:nonzero;"/>
        <path d="M410,216.56C404.547,222.639 399.921,229.411 396.24,236.7C400.65,239.09 406.87,236.29 410.19,230.38C413,225.34 412.82,219.69 410,216.56Z" style="fill:rgb(227,6,19);fill-rule:nonzero;"/>
        <path d="M392.19,258L392.19,248.62L402.24,248.62C407.79,248.62 412.24,252.81 412.24,257.98L412.24,316.19L392.2,316.19L392.2,257.38" style="fill:rgb(227,6,19);fill-rule:nonzero;"/>
        <path d="M181.8,248.73L190.67,248.73C201.19,248.57 201.67,257.43 201.67,257.43C205.61,250.43 213.22,246.93 222.67,246.93C237.67,246.93 248.15,257.4 248.15,275.37L248.15,316.24L228.42,316.24L228.42,276.75C228.42,269.25 224.47,264.7 216.42,264.7C206.94,264.7 201.61,269.84 201.61,279.91L201.61,316.24L181.81,316.24L181.81,248.73L181.8,248.73Z" style="fill:rgb(29,29,27);fill-rule:nonzero;"/>
        <path d="M400.25,343.3L403.31,350L402.1,350L399.1,343.58L393.85,343.58L393.85,350L392.75,350L392.75,334.92L398.25,334.92C401.55,334.92 403.34,336.65 403.34,339.26C403.374,341.155 402.088,342.837 400.25,343.3ZM398.25,335.96L393.85,335.96L393.85,342.56L398.25,342.56C400.74,342.56 402.19,341.41 402.19,339.26C402.19,337.11 400.78,336 398.29,336L398.25,335.96Z" style="fill:rgb(29,29,27);fill-rule:nonzero;"/>
        <path d="M414.83,350.06C413.52,350.06 413.15,349.06 413.15,347.98C412.473,349.456 410.95,350.368 409.33,350.27C407.27,350.27 405.67,349.04 405.67,347C405.67,345.11 407.14,344 409.24,343.83L413.15,343.55L413.15,342.55C413.15,340.79 411.96,340.13 410.35,340.13C408.74,340.13 407.35,340.89 407.29,342.47L406.22,342.47C406.37,340.32 408.05,339.13 410.35,339.13C411.844,338.978 413.283,339.78 413.94,341.13C414.158,341.773 414.253,342.452 414.22,343.13L414.22,347.97C414.22,348.7 414.32,349.12 415.05,349.12C415.146,349.131 415.244,349.131 415.34,349.12L415.34,350C415.173,350.04 415.002,350.06 414.83,350.06ZM413.15,344.53L409.35,344.77C407.78,344.87 406.75,345.7 406.75,347C406.75,348.53 407.9,349.29 409.41,349.29C412.09,349.29 413.15,347.13 413.15,345.09L413.15,344.53Z" style="fill:rgb(29,29,27);fill-rule:nonzero;"/>
        <path d="M421.81,350L420.72,350L416.51,339.37L417.72,339.37L421.3,348.49L424.72,339.37L425.85,339.37L421.81,350Z" style="fill:rgb(29,29,27);fill-rule:nonzero;"/>
        <path d="M428.16,336.41L428.16,334.92L429.65,334.92L429.65,336.41L428.16,336.41ZM428.35,350L428.35,339.37L429.48,339.37L429.48,350L428.35,350Z" style="fill:rgb(29,29,27);fill-rule:nonzero;"/>
        <path d="M437.05,350.15C435.05,350.15 434.31,348.89 434.31,347.04L434.31,340.34L432.18,340.34L432.18,339.34L434.31,339.34L434.31,336.4L435.37,336.15L435.37,339.34L438.66,339.34L438.66,340.34L435.37,340.34L435.37,347C435.37,348.25 435.71,349.15 437.13,349.15C437.695,349.138 438.258,349.071 438.81,348.95L438.81,349.89C438.234,350.04 437.644,350.127 437.05,350.15Z" style="fill:rgb(29,29,27);fill-rule:nonzero;"/>
        <path d="M449.93,350.06C448.61,350.06 448.25,349.06 448.25,347.98C447.573,349.456 446.05,350.368 444.43,350.27C442.36,350.27 440.77,349.04 440.77,347C440.77,345.11 442.23,344 444.34,343.83L448.25,343.55L448.25,342.55C448.25,340.79 447.06,340.13 445.44,340.13C443.82,340.13 442.49,340.89 442.38,342.47L441.32,342.47C441.47,340.32 443.15,339.13 445.44,339.13C446.937,338.977 448.379,339.778 449.04,341.13C449.25,341.775 449.342,342.452 449.31,343.13L449.31,347.97C449.31,348.7 449.42,349.12 450.14,349.12C450.24,349.131 450.34,349.131 450.44,349.12L450.44,350C450.273,350.04 450.102,350.06 449.93,350.06ZM448.25,344.53L444.45,344.77C442.87,344.87 441.85,345.7 441.85,347C441.85,348.53 443,349.29 444.51,349.29C447.19,349.29 448.25,347.13 448.25,345.09L448.25,344.53Z" style="fill:rgb(29,29,27);fill-rule:nonzero;"/>
        <path d="M453.48,336.41L453.48,334.92L455,334.92L455,336.41L453.48,336.41ZM453.67,350L453.67,339.37L454.8,339.37L454.8,350L453.67,350Z" style="fill:rgb(29,29,27);fill-rule:nonzero;"/>
        <path d="M461.15,350.12C459.8,350.12 459.03,349.42 459.03,347.87L459.03,334.65L460.09,334.65L460.09,347.83C460.09,348.55 460.31,349.1 461.2,349.1C461.503,349.123 461.807,349.123 462.11,349.1L462.11,350C461.797,350.084 461.474,350.125 461.15,350.12Z" style="fill:rgb(29,29,27);fill-rule:nonzero;"/>
        <path d="M467.09,350.12C465.73,350.12 464.96,349.42 464.96,347.87L464.96,334.65L466,334.65L466,347.83C466,348.55 466.22,349.1 467.11,349.1C467.413,349.123 467.717,349.123 468.02,349.1L468.02,350C467.717,350.082 467.404,350.122 467.09,350.12Z" style="fill:rgb(29,29,27);fill-rule:nonzero;"/>
        <path d="M479.12,344.94L471,344.94C470.996,346.097 471.384,347.222 472.1,348.13C472.742,348.88 473.694,349.293 474.68,349.25C475.544,349.269 476.38,348.933 476.99,348.32C477.401,347.906 477.683,347.381 477.8,346.81L478.91,346.81C478.765,347.662 478.347,348.445 477.72,349.04C476.891,349.829 475.789,350.27 474.645,350.27C473.366,350.27 472.146,349.719 471.3,348.76C469.613,346.467 469.486,343.363 470.98,340.94C471.799,339.761 473.155,339.066 474.59,339.09C477.46,339.09 479.14,341.56 479.14,344.24C479.14,344.49 479.12,344.68 479.12,344.94ZM474.59,340.09C472.612,340.094 470.988,341.722 470.988,343.7C470.988,343.8 470.992,343.9 471,344L478,344C478,341.94 476.76,340.09 474.59,340.09Z" style="fill:rgb(29,29,27);fill-rule:nonzero;"/>
        <path d="M495.85,350L495.85,343.05C495.85,341.19 495.17,340.05 493.32,340.05C492.621,340.035 491.942,340.293 491.43,340.77C490.586,341.604 490.129,342.754 490.17,343.94L490.17,349.94L489.09,349.94L489.09,342.99C489.09,341.13 488.39,339.99 486.54,339.99C485.84,339.97 485.159,340.229 484.65,340.71C483.715,341.772 483.252,343.17 483.37,344.58L483.37,350L482.31,350L482.31,339.37L483.24,339.37L483.37,341.19C483.925,339.906 485.201,339.076 486.6,339.09C488.122,338.946 489.544,339.919 489.96,341.39C490.489,339.974 491.869,339.046 493.38,339.09C495.87,339.09 496.91,340.71 496.91,342.98L496.91,349.98L495.85,350Z" style="fill:rgb(29,29,27);fill-rule:nonzero;"/>
        <path d="M509.18,344.94L501.06,344.94C501.056,346.097 501.444,347.222 502.16,348.13C502.799,348.877 503.748,349.29 504.73,349.25C505.598,349.272 506.438,348.935 507.05,348.32C507.461,347.906 507.743,347.381 507.86,346.81L509,346.81C508.855,347.662 508.437,348.445 507.81,349.04C506.981,349.829 505.879,350.27 504.735,350.27C503.456,350.27 502.236,349.719 501.39,348.76C500.471,347.633 499.984,346.214 500.02,344.76C499.948,343.419 500.317,342.091 501.07,340.98C501.889,339.801 503.245,339.106 504.68,339.13C507.55,339.13 509.23,341.6 509.23,344.28C509.2,344.49 509.18,344.68 509.18,344.94ZM504.65,340.09C502.681,340.107 501.071,341.731 501.071,343.7C501.071,343.787 501.074,343.873 501.08,343.96L508.08,343.96C508.07,341.94 506.82,340.09 504.65,340.09Z" style="fill:rgb(29,29,27);fill-rule:nonzero;"/>
        <path d="M519.7,350L519.7,343.05C519.7,341.19 518.89,340.13 516.96,340.13C514.34,340.13 513.43,342.39 513.43,344.68L513.43,350L512.37,350L512.37,339.37L513.3,339.37L513.43,341.3C514.109,339.943 515.503,339.085 517.02,339.09C519.47,339.09 520.76,340.6 520.76,342.98L520.76,349.98L519.7,350Z" style="fill:rgb(29,29,27);fill-rule:nonzero;"/>
        <path d="M528,350.15C526,350.15 525.26,348.89 525.26,347.04L525.26,340.34L523.14,340.34L523.14,339.34L525.26,339.34L525.26,336.4L526.33,336.15L526.33,339.34L529.62,339.34L529.62,340.34L526.33,340.34L526.33,347C526.33,348.25 526.66,349.15 528.09,349.15C528.655,349.138 529.218,349.071 529.77,348.95L529.77,349.89C529.191,350.04 528.598,350.127 528,350.15Z" style="fill:rgb(29,29,27);fill-rule:nonzero;"/>
        <path d="M544.47,350L544.34,348.13C543.664,349.452 542.294,350.282 540.81,350.27C539.775,350.304 538.764,349.947 537.98,349.27C536.778,348.063 536.145,346.4 536.24,344.7C536.162,343.038 536.761,341.413 537.9,340.2C538.672,339.486 539.686,339.09 540.737,339.09C542.217,339.09 543.59,339.875 544.34,341.15L544.34,334.65L545.4,334.65L545.4,350L544.47,350ZM543,341C542.398,340.436 541.594,340.137 540.77,340.17C539.914,340.145 539.087,340.487 538.5,341.11C537.669,342.124 537.241,343.41 537.3,344.72C537.21,346.132 537.722,347.517 538.71,348.53C539.293,349.03 540.042,349.294 540.81,349.27C541.618,349.291 542.401,348.984 542.98,348.42C543.92,347.425 544.412,346.087 544.34,344.72C544.454,343.345 543.964,341.987 543,341Z" style="fill:rgb(29,29,27);fill-rule:nonzero;"/>
        <path d="M549.25,339.45L548.89,338.86C549.689,338.538 550.178,337.716 550.08,336.86L548.91,336.86L548.91,334.94L550.91,334.94L550.91,336.88C550.969,338.002 550.297,339.043 549.25,339.45Z" style="fill:rgb(29,29,27);fill-rule:nonzero;"/>
        <path d="M560.71,344.94L552.59,344.94C552.586,346.097 552.974,347.222 553.69,348.13C554.332,348.88 555.284,349.293 556.27,349.25C557.134,349.269 557.97,348.933 558.58,348.32C558.991,347.906 559.273,347.381 559.39,346.81L560.5,346.81C560.355,347.662 559.937,348.445 559.31,349.04C558.481,349.829 557.379,350.27 556.235,350.27C554.956,350.27 553.736,349.719 552.89,348.76C551.971,347.633 551.484,346.214 551.52,344.76C551.448,343.419 551.817,342.091 552.57,340.98C553.389,339.801 554.745,339.106 556.18,339.13C559.05,339.13 560.73,341.6 560.73,344.28C560.73,344.49 560.71,344.68 560.71,344.94ZM556.18,340.09C554.211,340.107 552.601,341.731 552.601,343.7C552.601,343.787 552.604,343.873 552.61,343.96L559.61,343.96C559.6,341.94 558.35,340.09 556.18,340.09Z" style="fill:rgb(29,29,27);fill-rule:nonzero;"/>
        <path d="M571.23,350L571.23,343.05C571.23,341.19 570.42,340.13 568.49,340.13C565.87,340.13 564.96,342.39 564.96,344.68L564.96,350L563.9,350L563.9,339.37L564.83,339.37L564.96,341.3C565.639,339.943 567.033,339.085 568.55,339.09C571,339.09 572.3,340.6 572.3,342.98L572.3,349.98L571.23,350Z" style="fill:rgb(29,29,27);fill-rule:nonzero;"/>
        <path d="M579.56,350.15C577.56,350.15 576.82,348.89 576.82,347.04L576.82,340.34L574.7,340.34L574.7,339.34L576.82,339.34L576.82,336.4L577.89,336.15L577.89,339.34L581.18,339.34L581.18,340.34L577.89,340.34L577.89,347C577.89,348.25 578.23,349.15 579.65,349.15C580.215,349.137 580.778,349.07 581.33,348.95L581.33,349.89C580.751,350.04 580.158,350.127 579.56,350.15Z" style="fill:rgb(29,29,27);fill-rule:nonzero;"/>
        <path d="M588.6,340.28C585.94,340.28 585.22,342.66 585.22,344.89L585.22,350L584.16,350L584.16,339.37L585.09,339.37L585.22,341.51C585.73,340.104 587.106,339.188 588.6,339.26C588.934,339.252 589.269,339.272 589.6,339.32L589.6,340.39C589.272,340.312 588.937,340.275 588.6,340.28Z" style="fill:rgb(29,29,27);fill-rule:nonzero;"/>
        <path d="M600.33,344.94L592.21,344.94C592.209,346.098 592.601,347.223 593.32,348.13C593.971,348.842 594.894,349.249 595.859,349.249C596.732,349.249 597.573,348.917 598.21,348.32C598.617,347.903 598.898,347.38 599.02,346.81L600.12,346.81C599.98,347.664 599.562,348.449 598.93,349.04C598.134,349.833 597.053,350.276 595.93,350.27C594.634,350.304 593.39,349.748 592.55,348.76C590.863,346.467 590.736,343.363 592.23,340.94C593.053,339.761 594.412,339.067 595.85,339.09C598.72,339.09 600.4,341.56 600.4,344.24C600.36,344.49 600.33,344.68 600.33,344.94ZM595.81,340.09C593.836,340.107 592.221,341.736 592.221,343.71C592.221,343.793 592.224,343.877 592.23,343.96L599.23,343.96C599.23,341.94 598,340.09 595.81,340.09Z" style="fill:rgb(29,29,27);fill-rule:nonzero;"/>
        <path d="M611,349.17C610.228,349.87 609.222,350.257 608.18,350.257C606.687,350.257 605.301,349.461 604.55,348.17L604.55,354.17L603.49,354.17L603.49,339.37L604.43,339.37L604.55,341.24C605.223,339.915 606.593,339.08 608.08,339.09C609.116,339.053 610.128,339.41 610.91,340.09C612.116,341.295 612.753,342.958 612.66,344.66C612.731,346.324 612.133,347.949 611,349.17ZM610.17,340.88C609.59,340.367 608.834,340.098 608.06,340.13C607.255,340.112 606.477,340.419 605.9,340.98C604.956,341.973 604.46,343.312 604.53,344.68C604.42,346.054 604.909,347.411 605.87,348.4C606.477,348.963 607.283,349.261 608.11,349.23C608.964,349.258 609.791,348.919 610.38,348.3C611.206,347.28 611.63,345.991 611.57,344.68C611.668,343.278 611.17,341.897 610.2,340.88L610.17,340.88Z" style="fill:rgb(29,29,27);fill-rule:nonzero;"/>
        <path d="M620.38,340.28C617.72,340.28 617,342.66 617,344.89L617,350L615.94,350L615.94,339.37L616.87,339.37L617,341.51C617.51,340.104 618.886,339.188 620.38,339.26C620.714,339.252 621.049,339.272 621.38,339.32L621.38,340.39C621.052,340.312 620.717,340.275 620.38,340.28Z" style="fill:rgb(29,29,27);fill-rule:nonzero;"/>
        <path d="M624,336.41L624,334.92L625.49,334.92L625.49,336.41L624,336.41ZM624.19,350L624.19,339.37L625.32,339.37L625.32,350L624.19,350Z" style="fill:rgb(29,29,27);fill-rule:nonzero;"/>
        <path d="M636.43,349C635.511,349.885 634.263,350.345 632.99,350.27C631.685,350.347 630.409,349.85 629.5,348.91C628.94,348.333 628.621,347.564 628.61,346.76L629.69,346.76C629.751,347.383 630.031,347.964 630.48,348.4C631.953,349.496 633.976,349.524 635.48,348.47C635.862,348.124 636.071,347.625 636.05,347.11C636.018,346.036 635.125,345.17 634.05,345.17L631.99,344.89C631.087,344.843 630.233,344.465 629.59,343.83C629.195,343.361 628.985,342.763 629,342.15C628.997,341.366 629.328,340.616 629.91,340.09C630.72,339.403 631.759,339.046 632.82,339.09C634.02,339.022 635.192,339.478 636.03,340.34C636.519,340.895 636.805,341.601 636.84,342.34L635.78,342.34C635.719,341.874 635.536,341.433 635.25,341.06C634.616,340.409 633.727,340.069 632.82,340.13C632.147,340.084 631.477,340.256 630.91,340.62C630.407,340.942 630.095,341.493 630.08,342.09C630.08,342.98 630.53,343.66 632.14,343.87L634.14,344.15C635.733,344.187 637.033,345.487 637.07,347.08C637.1,347.777 636.872,348.46 636.43,349Z" style="fill:rgb(29,29,27);fill-rule:nonzero;"/>
        <path d="M648.72,344.94L640.6,344.94C640.596,346.097 640.984,347.222 641.7,348.13C642.342,348.88 643.294,349.293 644.28,349.25C645.144,349.269 645.98,348.933 646.59,348.32C647.001,347.906 647.283,347.381 647.4,346.81L648.51,346.81C648.365,347.662 647.947,348.445 647.32,349.04C646.491,349.829 645.389,350.27 644.245,350.27C642.966,350.27 641.746,349.719 640.9,348.76C639.981,347.633 639.494,346.214 639.53,344.76C639.458,343.419 639.827,342.091 640.58,340.98C641.399,339.801 642.755,339.106 644.19,339.13C647.06,339.13 648.74,341.6 648.74,344.28C648.74,344.49 648.72,344.68 648.72,344.94ZM644.19,340.09C642.221,340.107 640.611,341.731 640.611,343.7C640.611,343.787 640.614,343.873 640.62,343.96L647.62,343.96C647.61,341.94 646.36,340.09 644.19,340.09Z" style="fill:rgb(29,29,27);fill-rule:nonzero;"/>
        <path d="M658.77,349C657.851,349.885 656.603,350.345 655.33,350.27C654.025,350.345 652.75,349.848 651.84,348.91C651.284,348.331 650.966,347.563 650.95,346.76L652,346.76C652.058,347.382 652.334,347.963 652.78,348.4C654.253,349.496 656.276,349.524 657.78,348.47C658.162,348.124 658.371,347.625 658.35,347.11C658.319,346.054 657.456,345.196 656.4,345.17L654.34,344.89C653.434,344.843 652.577,344.466 651.93,343.83C651.535,343.361 651.325,342.763 651.34,342.15C651.337,341.366 651.668,340.616 652.25,340.09C653.061,339.405 654.099,339.048 655.16,339.09C656.36,339.022 657.532,339.478 658.37,340.34C658.859,340.895 659.145,341.601 659.18,342.34L658.12,342.34C658.063,341.873 657.88,341.43 657.59,341.06C656.956,340.409 656.067,340.069 655.16,340.13C654.487,340.085 653.818,340.257 653.25,340.62C652.747,340.942 652.435,341.493 652.42,342.09C652.42,342.98 652.87,343.66 654.48,343.87L656.48,344.15C658.067,344.167 659.391,345.416 659.5,347C659.525,347.736 659.263,348.453 658.77,349Z" style="fill:rgb(29,29,27);fill-rule:nonzero;"/>
    </g>
</svg>
